<svg version="1.1" xmlns="http://www.w3.org/2000/svg" viewBox="0 0 589.8886718749995 728.6696380882086" width="589.8886718749995" height="728.6696380882086">
  <!-- svg-source:excalidraw -->
  
  <defs>
    <style>
      @font-face {
        font-family: "Virgil";
        src: url("https://excalidraw.com/Virgil.woff2");
      }
      @font-face {
        font-family: "Cascadia";
        src: url("https://excalidraw.com/Cascadia.woff2");
      }
    </style>
  </defs>
  <rect x="0" y="0" width="589.8886718749995" height="728.6696380882086" fill="#ffffff"></rect><g stroke-linecap="round" transform="translate(10 10) rotate(0 284.9443359374998 354.3348190441043)"><path d="M0 0 C0 0, 0 0, 0 0 M0 0 C0 0, 0 0, 0 0 M2 10.94 C2.67 5.8, 6.52 2.44, 11.05 -0.68 M1.55 12.2 C3.01 8.49, 5.99 4.06, 10.96 -1.56 M-0.91 20.52 C8.57 19.67, 13.24 13.05, 19.97 2.52 M-0.29 23.91 C3.49 17.75, 10.19 16.54, 20.05 -2.02 M1.82 38.92 C10.81 20.55, 21.89 7.25, 33.7 -0.38 M0.2 36.95 C8.47 24.31, 18.86 13.23, 31.11 -1.18 M3.21 49.89 C17.91 28.47, 25.93 11.34, 40.96 2.91 M-0.08 47.4 C14.75 33.91, 30.14 15.03, 41 -0.09 M-2.31 63.68 C14.14 50.56, 18.43 35.64, 54.32 -1.26 M-0.98 61.61 C22.8 38.07, 40.88 13.24, 52.99 -1.28 M-0.72 76.65 C18.48 52.12, 39.14 31.27, 65.42 2.16 M-0.72 72.75 C12.57 55.05, 26.47 42.7, 62.28 0.36 M4.09 86.9 C23.6 61.66, 43.2 42.27, 76.11 -4.17 M0.9 83.2 C20.03 61.65, 39.01 39.1, 75.42 1.19 M-3.21 97.88 C17.93 78.22, 37.89 53.88, 85.57 0.91 M1.32 96.78 C19.03 74.79, 39.15 51.04, 83.77 -1.65 M-3.65 106.25 C31.91 70.18, 67.01 29.68, 97.45 -0.1 M-0.78 109.38 C37.56 68.52, 73.03 24.1, 94.96 1.34 M3.22 125.31 C30.46 82.58, 62.93 45.48, 106.96 -0.48 M-1.93 120.96 C27.49 91.37, 56.04 59.13, 106.25 1.58 M-2.91 132.81 C39.57 90.83, 75.19 49.16, 115.39 2.38 M-1.83 134.19 C30.62 100.05, 57.15 67.17, 115.38 0.69 M-0.65 146.63 C43.8 97.37, 86.31 43.86, 127.8 2.77 M-0.58 146.68 C39.28 102.24, 76.84 59.83, 128.63 1.12 M3.14 160.19 C40.25 112.77, 78.97 67.04, 139.94 1.92 M-1.67 157.53 C28.67 125.88, 57.28 90.74, 136.42 1.92 M1.1 167.75 C42.73 124.73, 80.19 77.61, 145.94 -2.65 M0.93 170.96 C41.05 122.99, 77.98 78.96, 148.6 -1.28 M-2.4 179.99 C34.93 145.7, 66.69 102.91, 156.25 -1.64 M-0.81 184.01 C61.34 108.85, 122.95 36.26, 159.02 0.46 M2.01 195.72 C44.87 145.47, 88.97 91.64, 172.37 -1.59 M0.56 194.42 C45.51 144.8, 92.03 91.62, 169.08 0.04 M-1.33 209.55 C50.52 148.92, 98.62 94.62, 181.14 -1.77 M1.27 205.52 C55.71 140.7, 112.47 76.81, 179.81 1.22 M-2.37 221.56 C47.18 163.21, 95.32 102.3, 189.56 -2.09 M-0.92 219.75 C52.18 154.62, 109.01 89.4, 189.97 0.08 M0.53 232.77 C60.19 164.04, 118.57 93.42, 203.52 -0.96 M-0.51 231.16 C45.57 178.69, 92.31 126.94, 201.86 0.44 M-2.31 245.48 C47.51 192.79, 89.83 141.53, 213.33 -1.89 M-0.74 244.69 C60.19 169.9, 123.88 96.83, 213.27 -0.27 M1.38 254.29 C77.22 169.46, 157.48 79.33, 222.7 0.01 M-0.77 256.6 C46.41 200.44, 93.85 144.68, 223.33 0.48 M-0.48 265.48 C57.24 200.42, 111.11 135.62, 232.94 0.43 M0.1 266.65 C74.44 178.05, 151.61 91.13, 233.17 0.13 M0.97 280.01 C87.23 180.02, 173.97 76.36, 242.82 -0.88 M0.21 281.67 C80.85 186.52, 162.08 95.82, 242.78 -0.88 M0.46 293.33 C72.89 214.42, 144.68 128.05, 255.63 -1.44 M0.54 292.13 C55.27 227.39, 112 161.22, 254.37 -1.1 M2.12 304.49 C76.44 219.62, 154.43 129.14, 264.23 0.45 M-0.79 305.18 C58.33 238.39, 114.76 172.31, 264.85 -0.82 M2.16 318.69 C61.48 242.34, 129.79 169.09, 276.41 0.93 M0.44 316.94 C79.01 224.1, 157.06 134.77, 276.3 -0.89 M-0.23 329.64 C95.06 216.56, 191.83 106.09, 286.71 1.48 M1.16 328.5 C79.38 242.87, 153.49 154.34, 286.42 -0.72 M-0.65 339.8 C72.13 262.63, 142.05 181.28, 296.41 -0.57 M-0.56 341.52 C61.32 269.55, 125.05 194.73, 297.94 0.18 M-1.57 354.97 C106.31 231.57, 212.37 110.09, 307.89 1.25 M-0.7 354.06 C96.29 245.04, 189.87 136.64, 308.06 0.18 M-0.66 364.47 C116.38 234.44, 228.02 104.13, 318.77 -0.89 M0.28 365.3 C124.82 224.96, 249.99 81.26, 319.01 0.21 M1.57 378.11 C62.78 305.26, 131.29 226.32, 329.27 -1.64 M-0.33 378.31 C94.97 266.11, 191.81 155.43, 328.48 -0.29 M1.91 389.01 C105.87 267.51, 212.97 143.71, 339.73 -1.6 M0.02 390.3 C127.92 242.39, 255.87 96.08, 338.9 -0.94 M0.97 401.29 C75.97 312.81, 150.83 226, 349.49 -0.97 M-0.98 402.48 C74.04 317.7, 149.8 229.56, 349.83 0.08 M-0.88 414.86 C131.7 257.76, 269.48 99.93, 360.94 -0.16 M0.04 415.15 C72.14 328.93, 147.33 242.15, 359.7 0.52 M0.14 426.4 C138.89 260.17, 283.7 92.29, 371.99 -0.45 M0.74 426.39 C76.83 341.6, 152.32 253.55, 371.21 -0.01 M0.79 440.26 C95.07 334.59, 185.82 229.45, 379.92 -1.11 M0.3 438.57 C122.63 297.7, 245.67 155.86, 381.75 0.75 M0.29 450.36 C117.76 318.45, 235.93 183.98, 393.22 -0.67 M0.25 450.79 C78.92 357.29, 160.64 262.51, 392.11 0.3 M-0.57 463.87 C144.16 300.13, 286.15 134.73, 404 -0.54 M0.5 463.75 C90.87 363.5, 179.71 260.97, 402.23 0.03 M1.03 476.54 C93.04 369.78, 186.84 261.34, 413.24 -0.7 M0.74 475.26 C132.66 323.95, 262.33 174.05, 412.62 0.2 M-0.53 486.8 C84.75 385.67, 173.1 285.14, 422.46 -0.16 M-0.32 488.29 C85.64 392.02, 172.01 292.13, 423.3 0.59 M0.47 499.27 C109.7 374.4, 219.92 249.02, 433.37 1.04 M-0.24 499.52 C110.09 377.9, 218.29 253.73, 435.17 0.32 M0.87 513.86 C102.19 398.33, 201.46 283.86, 445.92 1.35 M-0.17 512.71 C106.53 390.88, 212.66 268.17, 445.85 0.09 M-1.1 525.53 C144.45 359.24, 290.43 192.04, 454.72 -1.16 M0.01 525.14 C124.43 388.12, 245.38 248.78, 455.74 0.37 M-0.49 536.32 C129.1 383.29, 260.98 234.17, 466.33 0.41 M0.67 536.73 C138.77 377.69, 275.1 220.24, 467.12 0.47 M-0.95 548.73 C98.31 440.13, 196.79 327.33, 476.48 0.45 M0.89 549.29 C118.71 414.95, 238.23 279.39, 477.43 -0.09 M0.25 561.18 C187.34 342.57, 379.14 122.89, 487.36 -0.3 M0.71 560.65 C191.51 339.78, 386.32 115.55, 487.89 0.72 M0 574.76 C171.85 375, 341.79 177.02, 497.6 -0.11 M-0.5 574.05 C108.2 445.47, 218.15 319.89, 498.48 -0.82 M1.25 584.92 C105.95 462.54, 212.18 339.52, 509.99 0.19 M-0.03 585.38 C197.87 360.02, 394.03 134.59, 508.48 -0.69 M0.74 598.38 C195.66 372.85, 394.24 148.62, 518.31 -1.74 M-0.07 597.89 C122.58 460.06, 244.19 319.81, 519.47 -0.14 M0.8 608.84 C182.47 406.23, 356.94 201.14, 530.96 -0.49 M-0.4 609.45 C187.22 390.2, 376.75 172.05, 529.52 -0.24 M0.44 622.88 C135.64 472.01, 266.28 322.91, 541.81 -1.06 M-0.18 621.87 C143.2 455.17, 291.24 285.33, 540.92 -0.49 M0.66 633.11 C115.3 508.04, 229.86 375.32, 550.7 -0.02 M-0.34 635.09 C117.05 500.45, 230.16 369.98, 551.21 0.24 M-1.22 646.63 C148.49 476.7, 293.82 310.13, 563.01 -0.43 M-0.45 646.45 C199.61 410.68, 401.69 179.36, 562.5 0.34 M0.14 658.77 C119.9 523.94, 238.75 383.8, 570.47 2.08 M0.37 658.15 C173.54 464.04, 346.58 267.27, 571.16 0.73 M-0.44 672 C141.99 511.34, 281.45 348.02, 571.12 13.67 M0.21 670.13 C139.2 517.67, 275.25 360.22, 571.97 12.41 M-0.47 681.81 C210.84 443.59, 421.97 197.92, 571.13 24.99 M-0.09 682.2 C231.73 424.52, 459.15 162.95, 570.41 25.81 M1.25 696.26 C120.76 560.98, 238.81 423.63, 570.47 39.56 M-0.21 695.47 C173.14 494.9, 344.1 298.57, 571.65 37.81 M0.43 708.48 C144.17 540.5, 287.62 376.98, 572.52 51.26 M0.42 707.51 C190.4 485.66, 382.82 263.5, 571.95 49.51 M5.92 713.91 C141.56 555.58, 283.48 392.25, 570.43 61.65 M4.51 713.07 C154.4 542.07, 298.34 375.54, 570.69 61.45 M15.47 714.13 C160.21 548.63, 308.45 379.92, 570.1 73.88 M15.25 712.99 C202.88 501.06, 389.01 285.71, 571.87 73.41 M25.88 713.93 C168.26 547.66, 310.03 386.79, 569.91 88.2 M26.6 713.96 C166.5 548.68, 307.83 385.97, 570.4 86.53 M36.8 713.64 C227.04 492.61, 420.22 269.33, 571.09 98.49 M36.73 713.09 C195.65 526.79, 357.15 342.72, 571.37 99.37 M46.73 714.63 C172.37 578.63, 291.41 439.39, 570.15 110.73 M48.22 712.53 C250.27 478.26, 456.46 241.22, 571.42 110.64 M59.02 714.17 C227.92 512.72, 398.58 314.17, 572.4 123.54 M58.19 712.93 C218.47 528.05, 381.35 340.99, 571.59 123.23 M70.37 714.47 C238.2 518.89, 403.4 326.15, 571.75 136.48 M68.46 712.47 C253.38 498.99, 440.34 284.73, 571.59 135.15 M80.07 714.32 C239.05 529.53, 398.14 346.84, 570.44 147.17 M78.96 713.05 C254.25 514.08, 428.05 313.14, 571.36 147.34 M91.23 711.79 C208.65 578.43, 323.35 446.07, 571.82 158.99 M89.9 712.96 C204.44 580.47, 319.45 447.45, 571.86 160.45 M100.84 711.78 C245.84 552.22, 387.36 386.87, 571.17 172.39 M101.52 713.06 C272.01 516.16, 442.43 320.31, 571.68 172.05 M110.64 712.79 C205.04 601.77, 304.04 490.36, 570.8 183 M111.49 712.63 C243.76 561.23, 372.75 411.26, 571.1 184.56 M123.54 714.48 C299.61 511.38, 477.77 307.48, 571.09 194.74 M122.67 712.41 C293.08 520.8, 463.01 325.38, 571.93 195.48 M132.08 713.97 C222.15 612.95, 312.93 512.28, 572.6 208.93 M132.5 713.58 C269.8 552.97, 408.19 394.88, 570.29 209.16 M143.69 713.45 C295.74 533.11, 447.9 356.61, 570.44 220.83 M143.95 712.84 C234.05 602.81, 328.02 495.81, 571 221.6 M153.14 713.29 C299.18 544.75, 445.84 373.97, 572.29 231.69 M153.33 712.58 C314 534.03, 471.24 354.03, 570.59 232.79 M163.9 713.95 C287.43 574.74, 409.6 433.01, 570.36 245.3 M163.79 713.49 C321.76 536.32, 478.87 356.51, 571.71 244.35 M176.08 712.53 C296.99 573.44, 421.76 427.69, 572.3 257.1 M174.09 713.79 C275.63 595.86, 375.01 482.26, 571.09 256.89 M185.27 714.84 C324.04 547.84, 469.57 383.74, 569.87 270.47 M185.71 713.51 C323.09 553.25, 462.79 394.75, 570.59 269.79 M196.06 712.7 C312.19 581.08, 427.34 452.07, 569.97 282.06 M196.38 713.79 C325.28 559.88, 458.25 408.8, 571.65 281.2 M205.03 714.72 C299.44 605.71, 390.72 499.8, 572.77 295.5 M207.23 714.17 C317.25 585.69, 429.2 455.87, 571.92 293.21 M217.99 713.75 C305.88 607.09, 395.36 504.6, 570.76 306.69 M216.96 713.28 C299.19 621.11, 378.52 529.74, 570.83 305.43 M227.23 713.72 C324.8 604.32, 424.14 489.4, 571.78 316.93 M228.02 713.44 C359.99 565.46, 489.97 413.37, 571.15 318.01 M238.37 713.14 C326.51 607.35, 417.91 502.42, 572.39 331.61 M239.19 713.28 C316.26 620.25, 396.21 528.91, 571.69 330.58 M247.56 712.62 C355.16 589.71, 462.81 463.1, 571.37 343.98 M248.51 713.99 C312.97 634.98, 380.79 557.21, 570.47 343.08 M258.94 714.72 C374.78 579.79, 489.45 448.22, 571.83 353.32 M260.45 713.46 C358.38 597.96, 458.15 485.51, 571.93 355.34 M271.44 714.78 C367.41 604.76, 464.12 495.61, 572.2 365.54 M270.79 712.54 C331.51 639.69, 392.39 569.1, 572.13 367.81 M282.58 713.84 C379.98 600.07, 480.7 487.7, 571.56 378.11 M280.47 712.85 C392.77 581.33, 508.66 448.03, 570.81 378.69 M291.89 713.74 C371.28 616.81, 453.43 523.34, 570.73 390 M290.69 712.49 C364.97 624.53, 439.35 539.07, 570.69 391.01 M303.29 712.16 C377.55 627.06, 452.18 535.03, 570.82 405.04 M301.52 712.54 C394.59 606.61, 490.16 499.14, 571.9 404.02 M311.86 712.43 C411.07 606.48, 503.61 498.82, 570.47 414.52 M313.52 712.97 C381.66 630.95, 454 549.25, 572.18 415.77 M322.76 714.58 C394.35 634.39, 461.77 551.8, 572.76 426.03 M323.87 713.34 C393.58 631.93, 467.42 547.52, 571.59 428.64 M332.96 711.29 C421.01 613.74, 506.96 512.49, 572.25 437.47 M332.89 712.38 C431.73 604.68, 527.32 494.69, 570.64 439.75 M347.14 711.82 C411.86 636.13, 481.14 558.32, 572.82 453.04 M345.66 714.13 C402.07 647.51, 462.92 579.79, 572 453.37 M356.87 714.85 C439.05 616.75, 524.24 519.04, 572.81 464.3 M356.26 712.38 C436.25 618.35, 517.38 523.92, 570.98 463.89 M368.55 710.89 C431.28 637.52, 500.95 558.23, 570.17 477.35 M366.31 712.34 C433.48 630.71, 502.21 550.32, 571.98 475.58 M376.32 712.52 C425.4 660, 474.64 600.87, 573.74 487.83 M377.36 712.06 C423.98 660.98, 470.87 607.59, 570.89 487.46 M386.52 714.94 C458.17 625.56, 532.85 543.65, 573.19 500.39 M385.79 714.34 C447.72 644.37, 507.6 575.59, 570.49 502 M399.57 714.6 C435.02 668.78, 478.12 617.78, 568.9 511.21 M396.56 712.25 C465.97 637.97, 535.39 558.74, 569.61 515.11 M407.64 712.03 C467.18 646.45, 528.82 571.87, 569.54 525.31 M409.07 714.99 C447.77 667.73, 487.98 620.18, 571.23 524.49 M415.26 713.19 C471.26 650.91, 522.03 591.32, 571.46 534.98 M418.13 714.66 C471.5 654.17, 522.48 595.94, 569.95 536.34 M426.26 711.95 C457.01 682.99, 490.27 645.08, 572.73 551.66 M427.93 712.69 C475 661.01, 522.68 610.65, 570.52 548.95 M441.96 713.16 C471.45 676.24, 503.65 642.62, 568.33 558.58 M441.51 714.77 C486.96 662.67, 530.6 607.61, 572.09 560.85 M448.74 710.96 C474.32 681.92, 503.19 646.22, 570.39 576.51 M450.78 714.43 C488.67 671.67, 527.42 631.46, 569.65 574.97 M461.34 713.72 C488.26 676.36, 525.81 641.03, 571.05 588.52 M460.81 713.23 C503.33 663.98, 545.68 617.18, 569.48 586.07 M473.98 711.62 C497.11 683.42, 524.99 651.12, 572.99 597.76 M470.09 712.62 C507.38 670.16, 540.47 626.82, 569.59 600.08 M481.87 711.48 C515.56 675.28, 544.82 638.19, 573.28 609.53 M480.74 712.63 C516.74 674.26, 555.19 634.29, 571.42 609.09 M492.53 711.61 C520.96 677.75, 551.46 645.26, 569.43 626.44 M492.21 713.55 C514.63 687.5, 534.71 664.6, 570.63 623.52 M500.95 712.66 C516.7 694.04, 534.56 674.87, 569.89 632.1 M504.69 711.57 C531.59 684.56, 556.53 654.25, 569.91 634.49 M516.7 716.52 C526.58 703.16, 541.59 686.98, 571.78 646.98 M512.54 712.27 C532.11 693.3, 547.81 672.55, 573.03 646.31 M523.04 713.18 C537.7 699.96, 550.89 683.06, 568.06 659.76 M523.72 714.2 C541.9 694.78, 559.98 670.76, 570.35 658.6 M536.08 711.63 C547.26 697.84, 558.51 690.99, 573.35 675.25 M537.28 714.48 C544.04 705.49, 551.19 694.39, 572.87 670.83 M547.89 710.68 C555.15 706.03, 565.18 695.41, 570.3 681.97 M546.71 712.31 C552 706.04, 562.7 694.85, 573.02 684.66 M553.62 713.91 C556.58 711.74, 562.52 703.44, 572.16 695.82 M557.49 714.56 C562.54 706.39, 566.64 703.36, 571.44 696.19" stroke="white" stroke-width="1" fill="none"></path><path d="M-0.65 -1.02 C114.28 -2.52, 230.31 -3.58, 568.92 1.24 M0.66 -0.35 C179.22 0.29, 357.42 -0.27, 570.37 0.32 M570.81 -1.16 C571.36 189.84, 569.43 379.67, 568.47 707.59 M570.5 -0.47 C569.11 264.02, 569.15 527.06, 569.28 707.99 M570.24 708.68 C377.38 703.66, 183.47 704.86, 1.29 709.49 M569.69 708.4 C451.55 705.58, 333.75 704.86, 0.38 709 M-1.16 708.24 C-5.21 561.43, -4.88 414.29, 0.63 1.48 M0.25 709.24 C-0.56 481.83, 0.45 253.38, 0.2 -0.56" stroke="#000000" stroke-width="2" fill="none"></path></g><g stroke-linecap="round"><g transform="translate(92.36884744431336 196.25236720149405) rotate(0 202.81528402884783 2.203987480111664)"><path d="M-0.54 1.03 C67.92 0.91, 341.41 1.99, 409.9 2 M-4.27 -0.88 C63.96 0.62, 339.21 4.59, 408.15 5.29" stroke="#000000" stroke-width="2" fill="none"></path></g></g><g stroke-linecap="round"><g transform="translate(86.00054136935114 130.0828707578503) rotate(0 205.53116464373966 0.773110001691748)"><path d="M-1.04 -2.31 C66.53 -2.16, 338.07 -0.21, 406.86 1.04 M3.59 2.61 C71.91 3.09, 344.13 4.08, 412.1 3.81" stroke="#000000" stroke-width="2" fill="none"></path></g></g><g stroke-linecap="round"><g transform="translate(89.11332145018378 272.7161514706495) rotate(0 205.07548153975358 2.20198341936657)"><path d="M-1.61 1.26 C66.75 1.4, 343.77 1.17, 411.76 1.76 M2.71 -0.52 C70.81 -0.07, 342.85 4.75, 411.02 4.93" stroke="#000000" stroke-width="2" fill="none"></path></g></g><g stroke-linecap="round"><g transform="translate(89.97755150086368 401.83924554961595) rotate(0 202.9346818168956 0.6903237991850801)"><path d="M0.7 -2.39 C68.76 -1.58, 340.53 2.77, 408.24 3.77 M-2.37 2.49 C65.26 2.54, 336.42 0.03, 405.58 -0.62" stroke="#000000" stroke-width="2" fill="none"></path></g></g><g stroke-linecap="round"><g transform="translate(83.39620073780588 335.7858044890545) rotate(0 203.883659686682 -0.3169925534648428)"><path d="M-2.39 -0.77 C66.15 -0.8, 341.43 -0.21, 410.15 0.53 M1.51 -3.66 C69.88 -3.46, 340.68 2.63, 408.54 3.02" stroke="#000000" stroke-width="2" fill="none"></path></g></g><g stroke-linecap="round"><g transform="translate(88.29190845678977 477.1605397600124) rotate(0 205.7060026772815 1.1096852108425992)"><path d="M-0.77 1.15 C66.93 2.14, 338.45 3.21, 406.92 3.58 M4.01 -0.7 C72.52 -0.36, 344.72 -2.18, 412.18 -0.91" stroke="#000000" stroke-width="2" fill="none"></path></g></g><g stroke-linecap="round"><g transform="translate(101.2184150943126 609.4922295510823) rotate(0 205.4416841315974 0.4031639546974475)"><path d="M-0.98 -2.47 C67.12 -1.58, 338.03 2.43, 406.71 3.28 M3.69 2.35 C72.81 2.53, 344.08 -1.93, 411.86 -1.37" stroke="#000000" stroke-width="2" fill="none"></path></g></g><g stroke-linecap="round"><g transform="translate(91.54088292936285 544.5667169590915) rotate(0 203.59649984219413 1.1863682799862545)"><path d="M-2.47 -2.3 C66.15 -1.36, 341.09 4.05, 409.67 4.67 M1.38 2.62 C69.87 2.88, 340.15 0.57, 407.79 0.78" stroke="#000000" stroke-width="2" fill="none"></path></g></g><g transform="translate(43.80390751769073 149.674868934806) rotate(0 0.0000876778149176971 0.0000876778149176971)" stroke="none"><path fill="#000000" d="M 6.28,-6.28 Q 6.28,-6.28 7.11,-5.11 7.95,-3.94 8.37,-2.57 8.80,-1.19 8.76,0.23 8.72,1.67 8.22,3.02 7.73,4.37 6.83,5.49 5.93,6.61 4.72,7.38 3.50,8.15 2.11,8.50 0.72,8.85 -0.71,8.73 -2.14,8.61 -3.46,8.05 -4.78,7.48 -5.85,6.52 -6.92,5.56 -7.63,4.31 -8.33,3.06 -8.60,1.65 -8.87,0.23 -8.68,-1.18 -8.49,-2.60 -7.85,-3.89 -7.21,-5.18 -6.19,-6.19 -5.18,-7.21 -3.89,-7.85 -2.60,-8.49 -1.18,-8.68 0.24,-8.87 1.65,-8.60 3.06,-8.33 4.31,-7.62 5.56,-6.92 6.52,-5.85 7.48,-4.78 8.05,-3.46 8.62,-2.14 8.73,-0.70 8.85,0.72 8.50,2.11 8.15,3.51 7.38,4.72 6.61,5.93 5.49,6.83 4.36,7.73 3.02,8.22 1.67,8.72 0.23,8.76 -1.20,8.80 -2.57,8.37 -3.94,7.95 -5.11,7.11 -6.28,6.27 -6.28,6.28 -6.28,6.28 -6.94,5.43 -7.60,4.59 -8.04,3.61 -8.48,2.64 -8.67,1.58 -8.86,0.53 -8.80,-0.53 -8.73,-1.60 -8.41,-2.62 -8.09,-3.64 -7.54,-4.56 -6.99,-5.47 -6.23,-6.23 -5.47,-6.99 -4.56,-7.54 -3.64,-8.10 -2.62,-8.41 -1.60,-8.73 -0.53,-8.80 0.53,-8.86 1.59,-8.67 2.64,-8.48 3.61,-8.04 4.59,-7.60 5.43,-6.94 6.28,-6.28 6.28,-6.28 L 6.28,-6.28 Z"></path></g><g transform="translate(39.313844421872545 393.39179486782086) rotate(0 0.0000876778149176971 0.0000876778149176971)" stroke="none"><path fill="#000000" d="M 6.28,-6.28 Q 6.28,-6.28 7.11,-5.11 7.95,-3.94 8.37,-2.57 8.80,-1.19 8.76,0.23 8.72,1.67 8.22,3.02 7.73,4.37 6.83,5.49 5.93,6.61 4.72,7.38 3.50,8.15 2.11,8.50 0.72,8.85 -0.71,8.73 -2.14,8.61 -3.46,8.05 -4.78,7.48 -5.85,6.52 -6.92,5.56 -7.63,4.31 -8.33,3.06 -8.60,1.65 -8.87,0.23 -8.68,-1.18 -8.49,-2.60 -7.85,-3.89 -7.21,-5.18 -6.19,-6.19 -5.18,-7.21 -3.89,-7.85 -2.60,-8.49 -1.18,-8.68 0.24,-8.87 1.65,-8.60 3.06,-8.33 4.31,-7.62 5.56,-6.92 6.52,-5.85 7.48,-4.78 8.05,-3.46 8.62,-2.14 8.73,-0.70 8.85,0.72 8.50,2.11 8.15,3.51 7.38,4.72 6.61,5.93 5.49,6.83 4.36,7.73 3.02,8.22 1.67,8.72 0.23,8.76 -1.20,8.80 -2.57,8.37 -3.94,7.95 -5.11,7.11 -6.28,6.27 -6.28,6.28 -6.28,6.28 -6.94,5.43 -7.60,4.59 -8.04,3.61 -8.48,2.64 -8.67,1.58 -8.86,0.53 -8.80,-0.53 -8.73,-1.60 -8.41,-2.62 -8.09,-3.64 -7.54,-4.56 -6.99,-5.47 -6.23,-6.23 -5.47,-6.99 -4.56,-7.54 -3.64,-8.10 -2.62,-8.41 -1.60,-8.73 -0.53,-8.80 0.53,-8.86 1.59,-8.67 2.64,-8.48 3.61,-8.04 4.59,-7.60 5.43,-6.94 6.28,-6.28 6.28,-6.28 L 6.28,-6.28 Z"></path></g><g transform="translate(41.29686999966316 590.5744055584018) rotate(0 0.0000876778149176971 0.0000876778149176971)" stroke="none"><path fill="#000000" d="M 6.28,-6.28 Q 6.28,-6.28 7.11,-5.11 7.95,-3.94 8.37,-2.57 8.80,-1.19 8.76,0.23 8.72,1.67 8.22,3.02 7.73,4.37 6.83,5.49 5.93,6.61 4.72,7.38 3.50,8.15 2.11,8.50 0.72,8.85 -0.71,8.73 -2.14,8.61 -3.46,8.05 -4.78,7.48 -5.85,6.52 -6.92,5.56 -7.63,4.31 -8.33,3.06 -8.60,1.65 -8.87,0.23 -8.68,-1.18 -8.49,-2.60 -7.85,-3.89 -7.21,-5.18 -6.19,-6.19 -5.18,-7.21 -3.89,-7.85 -2.60,-8.49 -1.18,-8.68 0.24,-8.87 1.65,-8.60 3.06,-8.33 4.31,-7.62 5.56,-6.92 6.52,-5.85 7.48,-4.78 8.05,-3.46 8.62,-2.14 8.73,-0.70 8.85,0.72 8.50,2.11 8.15,3.51 7.38,4.72 6.61,5.93 5.49,6.83 4.36,7.73 3.02,8.22 1.67,8.72 0.23,8.76 -1.20,8.80 -2.57,8.37 -3.94,7.95 -5.11,7.11 -6.28,6.27 -6.28,6.28 -6.28,6.28 -6.94,5.43 -7.60,4.59 -8.04,3.61 -8.48,2.64 -8.67,1.58 -8.86,0.53 -8.80,-0.53 -8.73,-1.60 -8.41,-2.62 -8.09,-3.64 -7.54,-4.56 -6.99,-5.47 -6.23,-6.23 -5.47,-6.99 -4.56,-7.54 -3.64,-8.10 -2.62,-8.41 -1.60,-8.73 -0.53,-8.80 0.53,-8.86 1.59,-8.67 2.64,-8.48 3.61,-8.04 4.59,-7.60 5.43,-6.94 6.28,-6.28 6.28,-6.28 L 6.28,-6.28 Z"></path></g></svg>