<svg version="1.1" xmlns="http://www.w3.org/2000/svg" viewBox="0 0 752.0090875232881 541.4507034834032" width="752.0090875232881" height="541.4507034834032">
  <!-- svg-source:excalidraw -->
  
  <defs>
    <style>
      @font-face {
        font-family: "Virgil";
        src: url("https://excalidraw.com/Virgil.woff2");
      }
      @font-face {
        font-family: "Cascadia";
        src: url("https://excalidraw.com/Cascadia.woff2");
      }
    </style>
  </defs>
  <g stroke-linecap="round" transform="translate(21.96522714089224 10) rotate(0 360.02193019119795 252.6411861254187)"><path d="M484.5 13.81 C509.03 16.21, 529.51 30.86, 551.02 40.7 C572.53 50.55, 594.71 60.32, 613.56 72.88 C632.41 85.45, 650.2 100.52, 664.12 116.07 C678.05 131.62, 688.61 149.08, 697.1 166.19 C705.58 183.31, 711.14 201.07, 715.03 218.76 C718.92 236.44, 722.02 254.46, 720.42 272.31 C718.82 290.15, 712.9 308.18, 705.42 325.81 C697.94 343.45, 688.56 362.2, 675.54 378.14 C662.53 394.08, 644.59 408.37, 627.32 421.45 C610.04 434.53, 592.34 446.42, 571.9 456.63 C551.46 466.84, 528.53 475.44, 504.68 482.71 C480.83 489.98, 454.13 496.58, 428.81 500.26 C403.5 503.93, 378.6 505.13, 352.8 504.73 C326.99 504.34, 299.43 501.83, 273.96 497.86 C248.5 493.89, 222.92 488.89, 200.02 480.92 C177.12 472.96, 156.46 461.97, 136.55 450.09 C116.65 438.21, 96.66 423.45, 80.57 409.65 C64.48 395.86, 51.55 383.02, 40.02 367.31 C28.49 351.6, 18.18 332.93, 11.39 315.38 C4.6 297.83, 0.17 280.51, -0.72 262 C-1.61 243.5, 1.34 222.71, 6.03 204.35 C10.72 185.99, 17.36 168.01, 27.4 151.83 C37.44 135.65, 50.77 121.55, 66.26 107.26 C81.75 92.97, 101.38 78.36, 120.32 66.08 C139.26 53.79, 158 42.56, 179.91 33.55 C201.83 24.53, 226.96 17.25, 251.8 11.99 C276.64 6.73, 303.19 3.7, 328.97 1.99 C354.76 0.29, 368.71 -4.84, 406.52 1.74 C444.34 8.31, 521.19 28.2, 555.86 41.45 C590.53 54.69, 618.09 77.79, 614.57 81.19 M452.18 6.09 C476.76 6.66, 500.67 17.28, 523.82 26.37 C546.97 35.46, 570.5 48.24, 591.08 60.62 C611.66 73.01, 631.96 86.5, 647.32 100.68 C662.68 114.87, 672.8 129.36, 683.25 145.75 C693.7 162.14, 704.02 181.76, 710.02 199.01 C716.03 216.27, 718.92 231.85, 719.28 249.29 C719.64 266.73, 717.16 285.68, 712.18 303.65 C707.19 321.62, 699.74 340.84, 689.38 357.1 C679.02 373.36, 665.99 387.1, 650.02 401.21 C634.06 415.31, 613.45 429.05, 593.59 441.74 C573.73 454.42, 552.84 468.77, 530.86 477.32 C508.87 485.86, 486.84 488.41, 461.67 493.03 C436.5 497.65, 405.97 503.85, 379.84 505.02 C353.72 506.2, 330.39 503.22, 304.92 500.08 C279.45 496.95, 250.73 492.53, 227 486.2 C203.27 479.86, 183.85 472.16, 162.54 462.05 C141.23 451.95, 117.67 438.35, 99.14 425.56 C80.61 412.78, 64.95 400.74, 51.36 385.34 C37.77 369.93, 26.17 350.8, 17.59 333.12 C9.01 315.44, 2.33 297.26, -0.12 279.26 C-2.58 261.25, -0.11 242.57, 2.85 225.09 C5.81 207.61, 9.64 191.28, 17.63 174.39 C25.62 157.5, 37.67 139.48, 50.81 123.75 C63.94 108.02, 79.39 93.19, 96.45 80.02 C113.5 66.85, 131.53 54.81, 153.12 44.72 C174.71 34.64, 201.19 26.53, 225.99 19.49 C250.78 12.45, 276.97 5.75, 301.88 2.5 C326.78 -0.75, 350.04 -1.38, 375.43 -0.02 C400.81 1.35, 441.7 7.94, 454.2 10.69 C466.7 13.43, 452.53 12.6, 450.41 16.46" stroke="none" stroke-width="0" fill="#ced4da"></path><path d="M110.8 70.05 C124.2 55.44, 149.6 48.27, 171.77 38.7 C193.95 29.13, 219.55 18.47, 243.86 12.63 C268.16 6.79, 292.5 5.7, 317.57 3.67 C342.64 1.65, 368.54 -1.21, 394.27 0.47 C419.99 2.15, 447.46 7.88, 471.94 13.75 C496.41 19.62, 518.66 26.44, 541.12 35.67 C563.59 44.9, 587.6 57.22, 606.73 69.13 C625.85 81.04, 641.71 92.29, 655.88 107.13 C670.06 121.97, 682.19 141.09, 691.78 158.17 C701.36 175.25, 708.47 191.79, 713.42 209.63 C718.37 227.47, 722.71 247.43, 721.46 265.22 C720.2 283.01, 712.83 299.29, 705.86 316.38 C698.9 333.46, 691.55 351.71, 679.68 367.72 C667.8 383.73, 651.44 398.11, 634.63 412.46 C617.82 426.82, 598.54 442.5, 578.8 453.84 C559.05 465.19, 539.26 472.84, 516.17 480.55 C493.08 488.25, 466.02 495.81, 440.25 500.08 C414.48 504.35, 387.4 506.16, 361.55 506.16 C335.7 506.16, 310.37 504.1, 285.16 500.07 C259.94 496.04, 233.84 489.28, 210.24 481.98 C186.64 474.67, 164.1 466.79, 143.56 456.23 C123.03 445.68, 103.75 432.4, 87.01 418.65 C70.27 404.91, 55.18 389.87, 43.13 373.76 C31.08 357.66, 21.5 339.49, 14.7 322.05 C7.9 304.61, 4.1 287.3, 2.32 269.13 C0.54 250.96, 0.25 231, 4.02 213.02 C7.79 195.04, 15.44 177.74, 24.94 161.26 C34.44 144.79, 33.86 136.14, 61.01 114.16 C88.16 92.18, 150.7 46.78, 187.81 29.39 C224.93 11.99, 280.94 5.89, 283.68 9.79 M571.26 47.85 C595.01 54.55, 614.15 70.1, 631.99 83.73 C649.83 97.37, 665.68 113.79, 678.3 129.67 C690.92 145.54, 700.86 161.53, 707.72 178.99 C714.59 196.45, 718.52 215.47, 719.48 234.45 C720.44 253.43, 717.01 274.48, 713.48 292.85 C709.96 311.22, 707.2 328.68, 698.33 344.67 C689.46 360.65, 674.46 374.21, 660.26 388.76 C646.06 403.3, 631.64 418.79, 613.13 431.94 C594.62 445.1, 571.89 457.39, 549.23 467.69 C526.58 477.99, 501.6 487.9, 477.2 493.72 C452.8 499.53, 428.22 500.66, 402.84 502.6 C377.46 504.54, 350.07 507.12, 324.94 505.35 C299.81 503.59, 276.15 497.38, 252.05 492 C227.95 486.63, 202.96 481.73, 180.34 473.1 C157.72 464.47, 135.26 453.16, 116.33 440.23 C97.39 427.3, 81.91 410.88, 66.75 395.52 C51.59 380.16, 35.69 364.75, 25.37 348.06 C15.05 331.37, 9.14 312.75, 4.84 295.38 C0.53 278.01, -1.57 261.4, -0.43 243.85 C0.71 226.31, 5.29 208.18, 11.68 190.12 C18.08 172.06, 25.93 151.95, 37.95 135.5 C49.97 119.04, 67.06 105.36, 83.78 91.4 C100.51 77.45, 117.86 63.26, 138.28 51.77 C158.69 40.28, 183.07 30.13, 206.25 22.46 C229.43 14.79, 253.04 9.53, 277.37 5.74 C301.7 1.95, 325.88 -0.46, 352.23 -0.27 C378.59 -0.07, 409.53 3.26, 435.51 6.91 C461.48 10.56, 484.96 14.34, 508.07 21.62 C531.18 28.91, 563.51 44.94, 574.16 50.62 C584.81 56.29, 575.8 52.18, 571.96 55.65" stroke="#000000" stroke-width="4" fill="none"></path></g><g stroke-linecap="round" transform="translate(10 38.781642190510865) rotate(0 343.7216412307598 246.33453064644618)"><path d="M460.19 13.42 C485 15.89, 508.13 30.79, 529.69 41.1 C551.25 51.42, 571.59 62.31, 589.55 75.3 C607.52 88.29, 624.03 103.79, 637.47 119.05 C650.9 134.31, 662.27 150.1, 670.16 166.84 C678.06 183.58, 682.46 201.47, 684.84 219.52 C687.23 237.57, 687.43 256.42, 684.47 275.14 C681.51 293.87, 675.99 314.58, 667.09 331.87 C658.19 349.15, 644.87 363.64, 631.07 378.84 C617.27 394.05, 601.91 410.17, 584.29 423.1 C566.66 436.02, 547.28 447.23, 525.32 456.4 C503.36 465.57, 477.22 472.51, 452.55 478.13 C427.88 483.75, 402.57 487.9, 377.28 490.11 C351.99 492.32, 325.78 493.57, 300.81 491.41 C275.83 489.25, 251.31 483.51, 227.46 477.14 C203.6 470.76, 179.41 462.88, 157.68 453.17 C135.95 443.46, 115.1 432.1, 97.07 418.88 C79.05 405.66, 62.66 389.58, 49.5 373.84 C36.35 358.11, 25.96 341.66, 18.16 324.46 C10.36 307.26, 4.99 288.65, 2.71 270.64 C0.43 252.62, 1.65 234.08, 4.47 216.38 C7.28 198.67, 10.95 181.34, 19.59 164.42 C28.24 147.5, 42.22 130.3, 56.36 114.84 C70.5 99.38, 86.45 84.56, 104.42 71.67 C122.4 58.78, 142.9 47.42, 164.19 37.51 C185.48 27.6, 207.8 18.54, 232.16 12.19 C256.52 5.85, 284.42 1.21, 310.35 -0.56 C336.27 -2.34, 355.93 -2.95, 387.7 1.53 C419.48 6.02, 476.52 18.56, 501 26.36 C525.49 34.15, 537.18 44.24, 534.63 48.3 M97.49 78.78 C111.1 63.49, 136.2 52.04, 157.21 41.54 C178.21 31.04, 200.4 22.78, 223.55 15.78 C246.69 8.78, 271.02 1.86, 296.1 -0.45 C321.17 -2.76, 348.64 -0.63, 374.01 1.9 C399.39 4.42, 424.29 9.59, 448.34 14.69 C472.38 19.79, 495.74 23.86, 518.29 32.49 C540.85 41.12, 564.87 53.5, 583.64 66.48 C602.42 79.46, 616.91 94.72, 630.94 110.36 C644.97 126.01, 658.78 143.55, 667.85 160.34 C676.92 177.13, 682.34 192.85, 685.37 211.08 C688.41 229.32, 688.59 251.27, 686.06 269.75 C683.54 288.23, 677.89 304.28, 670.21 321.97 C662.52 339.66, 653.09 360.19, 639.95 375.88 C626.81 391.57, 609.61 403.13, 591.37 416.12 C573.14 429.11, 551.52 444.08, 530.54 453.84 C509.57 463.6, 488.56 468.86, 465.54 474.68 C442.51 480.5, 418.13 486.11, 392.39 488.75 C366.64 491.4, 337.22 492.2, 311.05 490.55 C284.88 488.91, 259.39 484.19, 235.37 478.89 C211.35 473.59, 188.65 467.7, 166.94 458.75 C145.23 449.79, 123.45 437.78, 105.12 425.15 C86.78 412.52, 70.6 398.71, 56.92 382.97 C43.23 367.23, 32.21 347.82, 23.02 330.7 C13.82 313.59, 5.72 298.26, 1.73 280.27 C-2.26 262.27, -3.11 240.77, -0.94 222.73 C1.24 204.7, 6.87 189.38, 14.79 172.07 C22.7 154.77, 33.34 135.21, 46.56 118.89 C59.77 102.57, 84.65 80.69, 94.08 74.16 C103.51 67.63, 98.85 76.45, 103.14 79.71" stroke="none" stroke-width="0" fill="#ced4da"></path><path d="M227.33 14.49 C248.68 4.56, 280.06 1.81, 306.03 -0.35 C332 -2.52, 358.02 -1.02, 383.15 1.49 C408.28 4.01, 433.14 9, 456.82 14.73 C480.5 20.45, 503.35 26.65, 525.22 35.85 C547.08 45.05, 569.58 56.99, 588.02 69.93 C606.45 82.86, 622.57 97.58, 635.82 113.43 C649.07 129.28, 659.54 147.86, 667.53 165.04 C675.52 182.23, 681 198.78, 683.76 216.55 C686.53 234.32, 686.67 252.93, 684.15 271.66 C681.62 290.4, 676.86 311.45, 668.63 328.97 C660.39 346.48, 648.38 361.59, 634.73 376.76 C621.09 391.93, 604.39 406.93, 586.75 419.97 C569.12 433.01, 550.3 445.56, 528.94 455 C507.58 464.44, 482.89 470.33, 458.61 476.62 C434.32 482.92, 408.74 490.32, 383.24 492.79 C357.73 495.26, 330.67 493.69, 305.58 491.44 C280.48 489.2, 256.78 485.12, 232.67 479.32 C208.57 473.53, 182.85 466.56, 160.94 456.68 C139.03 446.79, 119.4 433.33, 101.22 420.02 C83.03 406.7, 65.42 392.12, 51.85 376.79 C38.28 361.47, 28.15 345.01, 19.79 328.06 C11.44 311.11, 4.82 293.43, 1.72 275.1 C-1.38 256.77, -1.5 236.16, 1.2 218.09 C3.9 200.02, 9.3 183.93, 17.92 166.68 C26.54 149.44, 38.92 130, 52.9 114.62 C66.89 99.23, 83.92 86.85, 101.82 74.36 C119.72 61.88, 124.42 52.25, 160.32 39.71 C196.23 27.16, 276.31 4.33, 317.27 -0.89 C358.24 -6.12, 405.49 3.71, 406.12 8.33 M286.71 1.99 C310.3 -5.22, 340.23 -2.86, 365.19 -1.7 C390.16 -0.54, 412.59 3.91, 436.52 8.95 C460.45 13.99, 486.55 19.21, 508.8 28.53 C531.04 37.84, 551.08 52.12, 569.99 64.83 C588.89 77.55, 606.87 90.2, 622.22 104.81 C637.57 119.43, 651.65 135.48, 662.08 152.53 C672.52 169.57, 680.41 189.4, 684.85 207.11 C689.29 224.82, 690.7 240.82, 688.72 258.78 C686.75 276.74, 680.75 297.03, 672.99 314.85 C665.24 332.67, 654.67 349.71, 642.2 365.72 C629.74 381.73, 614.53 397.03, 598.2 410.92 C581.87 424.81, 564.45 438.57, 544.23 449.08 C524.02 459.58, 500.58 467.4, 476.91 473.94 C453.25 480.48, 428.14 484.97, 402.25 488.32 C376.35 491.67, 347.36 495.12, 321.55 494.05 C295.75 492.98, 271.41 486.99, 247.42 481.88 C223.43 476.76, 199.35 471.89, 177.64 463.37 C155.92 454.85, 136.08 443.2, 117.11 430.76 C98.15 418.32, 79.22 404.15, 63.85 388.74 C48.48 373.34, 35.14 355.69, 24.88 338.32 C14.62 320.95, 5.9 302.21, 2.29 284.52 C-1.32 266.83, 1.27 250.32, 3.22 232.18 C5.17 214.05, 7.83 193.61, 13.98 175.7 C20.13 157.79, 28.01 140.35, 40.11 124.73 C52.22 109.1, 69.28 95.27, 86.6 81.96 C103.92 68.64, 123.32 55.27, 144.02 44.84 C164.72 34.41, 187.22 26.2, 210.8 19.36 C234.39 12.52, 272.42 5.28, 285.52 3.8 C298.63 2.33, 288.63 6.44, 289.44 10.5" stroke="#000000" stroke-width="4" fill="none"></path></g><g transform="translate(452.1245128855526 121.98947320760453) rotate(0 52.85638627639287 52.35418436227428)" stroke="none"><path fill="#000000" d="M 1.16,-1.92 Q 1.16,-1.92 2.11,-1.84 4.23,-1.76 8.61,-1.70 13.00,-1.64 18.42,-1.59 23.85,-1.55 28.87,-1.52 33.89,-1.48 37.73,-1.46 41.56,-1.44 44.11,-1.42 46.65,-1.40 47.80,-1.52 48.95,-1.64 50.49,-1.06 52.03,-0.47 52.34,0.82 52.65,2.13 52.14,4.01 51.62,5.88 50.54,8.04 49.47,10.20 48.46,12.41 47.45,14.62 46.59,16.65 45.74,18.68 45.08,20.62 44.42,22.56 43.94,24.74 43.47,26.92 43.07,29.37 42.68,31.81 42.40,34.02 42.12,36.22 42.10,37.80 42.08,39.39 42.20,41.06 42.33,42.73 43.37,42.07 44.41,41.41 46.56,41.66 48.71,41.90 51.01,42.25 53.32,42.59 55.25,42.90 57.17,43.21 58.54,43.44 59.91,43.66 61.40,43.97 62.89,44.27 63.88,44.81 64.87,45.35 65.87,45.98 66.87,46.62 68.41,47.82 69.94,49.02 71.55,50.39 73.17,51.76 74.66,52.87 76.15,53.98 77.33,54.73 78.50,55.48 79.54,56.26 80.57,57.04 81.72,57.57 82.88,58.10 83.98,58.61 85.08,59.11 86.03,59.67 86.98,60.23 88.01,60.70 89.04,61.18 90.73,62.38 92.41,63.59 94.42,65.32 96.43,67.05 98.32,68.82 100.22,70.59 101.63,71.89 103.05,73.19 104.06,74.04 105.07,74.89 106.13,75.87 107.18,76.86 107.65,78.08 108.11,79.30 108.23,80.37 108.35,81.45 108.47,83.34 108.58,85.22 108.45,87.13 108.32,89.04 108.15,91.52 107.99,94.00 107.86,96.26 107.73,98.51 107.79,101.33 107.84,104.15 107.78,104.49 107.73,104.83 107.57,105.14 107.40,105.44 107.15,105.68 106.90,105.92 106.59,106.06 106.28,106.21 105.94,106.24 105.59,106.28 105.26,106.21 104.92,106.13 104.62,105.95 104.33,105.78 104.10,105.51 103.88,105.25 103.75,104.93 103.63,104.61 103.61,104.27 103.59,103.92 103.68,103.59 103.77,103.26 103.97,102.97 104.16,102.69 104.43,102.48 104.71,102.27 105.04,102.16 105.36,102.05 105.71,102.05 106.05,102.05 106.38,102.16 106.71,102.27 106.98,102.48 107.26,102.69 107.45,102.97 107.64,103.26 107.73,103.59 107.83,103.92 107.81,104.27 107.79,104.61 107.66,104.93 107.53,105.25 107.31,105.51 107.09,105.78 106.79,105.95 106.50,106.13 106.16,106.21 105.82,106.28 105.48,106.24 105.14,106.21 104.82,106.06 104.51,105.92 104.26,105.68 104.01,105.44 103.85,105.14 103.69,104.83 103.63,104.49 103.58,104.15 103.58,104.15 103.58,104.15 103.63,101.33 103.68,98.51 103.56,96.26 103.43,94.00 103.26,91.52 103.10,89.04 102.96,87.13 102.83,85.23 102.90,83.76 102.98,82.30 103.07,81.10 103.17,79.91 102.71,78.93 102.24,77.95 101.35,77.03 100.46,76.12 99.03,74.91 97.60,73.69 95.63,72.19 93.65,70.70 91.64,69.37 89.63,68.04 88.04,67.21 86.45,66.37 85.03,65.57 83.61,64.77 82.55,63.95 81.48,63.13 80.52,62.51 79.55,61.89 78.65,61.16 77.75,60.42 76.94,59.66 76.14,58.90 75.00,58.05 73.85,57.20 72.27,56.12 70.68,55.04 68.99,53.90 67.29,52.76 65.70,51.74 64.10,50.73 62.73,49.59 61.35,48.45 60.21,47.95 59.07,47.45 57.85,47.09 56.63,46.74 54.77,46.47 52.92,46.20 50.70,46.05 48.48,45.89 46.36,45.90 44.24,45.90 41.80,45.26 39.36,44.62 38.99,42.97 38.62,41.31 38.78,40.24 38.94,39.17 39.13,37.53 39.33,35.89 39.58,33.64 39.83,31.38 40.19,28.85 40.55,26.32 41.01,23.97 41.46,21.61 42.09,19.56 42.72,17.51 43.48,15.39 44.24,13.28 45.13,10.96 46.01,8.64 46.81,6.65 47.60,4.66 48.27,3.15 48.95,1.64 47.80,1.52 46.65,1.40 44.11,1.42 41.56,1.44 37.73,1.46 33.89,1.48 28.87,1.52 23.85,1.55 18.42,1.59 13.00,1.64 8.61,1.70 4.23,1.76 2.11,1.84 -1.16,1.92 -0.23,1.89 -0.46,1.87 -0.67,1.78 -0.89,1.70 -1.08,1.57 -1.27,1.44 -1.43,1.26 -1.58,1.09 -1.69,0.88 -1.80,0.68 -1.85,0.45 -1.91,0.23 -1.91,-0.00 -1.91,-0.23 -1.85,-0.45 -1.80,-0.68 -1.69,-0.88 -1.58,-1.09 -1.43,-1.26 -1.27,-1.44 -1.08,-1.57 -0.89,-1.70 -0.67,-1.78 -0.46,-1.87 -0.23,-1.89 0.00,-1.92 0.00,-1.92 L 1.16,-1.92 Z"></path></g></svg>