<svg version="1.1" xmlns="http://www.w3.org/2000/svg" viewBox="0 0 218.01349662742723 441.18292539329104" width="218.01349662742723" height="441.18292539329104">
  <!-- svg-source:excalidraw -->
  
  <defs>
    <style>
      @font-face {
        font-family: "Virgil";
        src: url("https://excalidraw.com/Virgil.woff2");
      }
      @font-face {
        font-family: "Cascadia";
        src: url("https://excalidraw.com/Cascadia.woff2");
      }
    </style>
  </defs>
  <g stroke-linecap="round"><g transform="translate(12.716180334687124 30.07005904581547) rotate(0 94.93449866567812 179.63953628189506)"><path d="M0.47 1.12 C31.36 60.44, 155.89 297.71, 187.07 356.75 M-2.72 -0.74 C28.94 58.93, 161.28 300.34, 192.59 360.02" stroke="#000000" stroke-width="1" fill="none"></path></g><g transform="translate(12.716180334687124 30.07005904581547) rotate(0 94.93449866567812 179.63953628189506)"><path d="M171.79 337.73 C177.45 345.57, 183.56 351.47, 191.24 356.81 M170.09 340.62 C179.16 347.88, 186.41 352.12, 191.43 359.4" stroke="#000000" stroke-width="1" fill="none"></path></g><g transform="translate(12.716180334687124 30.07005904581547) rotate(0 94.93449866567812 179.63953628189506)"><path d="M189.87 328.01 C189.04 339.42, 188.63 348.84, 191.24 356.81 M188.16 330.9 C191.47 341.4, 192.92 348.76, 191.43 359.4" stroke="#000000" stroke-width="1" fill="none"></path></g></g><g stroke-linecap="round"><g transform="translate(163.52632850085183 11.682784147187704) rotate(0 -20.6540539664702 208.90867854945782)"><path d="M1.16 -1.68 C-6.04 68.61, -35.52 349.64, -42.46 419.5 M-1.66 3.58 C-8.01 73.19, -30.22 345.52, -36.97 414.9" stroke="#000000" stroke-width="1" fill="none"></path></g><g transform="translate(163.52632850085183 11.682784147187704) rotate(0 -20.6540539664702 208.90867854945782)"><path d="M-47.11 383.52 C-41.58 395.72, -41.98 403.75, -37.77 418 M-43.45 385.99 C-42.95 390.48, -41.09 396.58, -35.06 415.55" stroke="#000000" stroke-width="1" fill="none"></path></g><g transform="translate(163.52632850085183 11.682784147187704) rotate(0 -20.6540539664702 208.90867854945782)"><path d="M-26.67 385.33 C-27.76 397.1, -34.82 404.55, -37.77 418 M-23.01 387.79 C-26.93 392.26, -29.47 397.96, -35.06 415.55" stroke="#000000" stroke-width="1" fill="none"></path></g></g><g stroke-linecap="round" transform="translate(164.6797307302695 310.9042426695287) rotate(340.2184462846689 17.839134640027396 37.8697316883306)"><path d="M29.24 7.51 C32.66 11.3, 35.91 17.69, 36.73 25 C37.56 32.31, 35.94 43.4, 34.19 51.37 C32.44 59.33, 29.61 68.97, 26.23 72.77 C22.86 76.57, 17.86 76.17, 13.93 74.16 C10 72.14, 5.13 66.74, 2.66 60.7 C0.2 54.65, -0.89 45.71, -0.85 37.89 C-0.8 30.07, -0.08 19.94, 2.92 13.78 C5.93 7.61, 11.77 -1.48, 17.16 0.91 C22.56 3.3, 32.56 18.63, 35.28 28.12 C38 37.6, 34.03 57.27, 33.49 57.83 M28.95 10.11 C31.75 14.98, 32.72 22.38, 33.38 30.18 C34.05 37.98, 34.92 49.51, 32.94 56.89 C30.95 64.28, 25.43 71.48, 21.48 74.51 C17.54 77.54, 12.54 77.72, 9.25 75.09 C5.97 72.45, 3.45 65.72, 1.75 58.69 C0.05 51.66, -1.44 40.73, -0.95 32.91 C-0.45 25.08, 2.01 17.63, 4.73 11.73 C7.44 5.83, 11.67 -1.96, 15.34 -2.49 C19.01 -3.02, 24.94 7, 26.76 8.58 C28.59 10.16, 26.31 6.88, 26.32 6.97" stroke="#c92a2a" stroke-width="4" fill="none"></path></g><g stroke-linecap="round" transform="translate(169.99284462659853 315.01914690375634) rotate(343.5900975153363 17.839134640027396 37.8697316883306)"><path d="M5.4 13.82 C7.06 6.92, 10.14 1.47, 13.57 0.05 C17 -1.36, 22.55 1.65, 25.98 5.34 C29.41 9.02, 32.84 14.97, 34.16 22.15 C35.48 29.34, 35.13 40.3, 33.9 48.46 C32.67 56.62, 30.1 66.39, 26.79 71.14 C23.48 75.89, 17.4 78.08, 14.03 76.96 C10.65 75.85, 8.86 70.86, 6.54 64.46 C4.21 58.06, -1.49 49.2, 0.06 38.55 C1.6 27.89, 11.44 5.58, 15.8 0.53 C20.17 -4.52, 26.1 7.76, 26.23 8.24 M1.24 14.92 C3.15 8.15, 9.31 3.06, 12.93 1.35 C16.55 -0.36, 19.87 0.95, 22.98 4.66 C26.08 8.37, 29.64 16.12, 31.55 23.62 C33.46 31.12, 35.21 41.86, 34.42 49.69 C33.63 57.52, 30.11 65.79, 26.8 70.58 C23.5 75.37, 18.6 79.87, 14.58 78.45 C10.56 77.03, 5.53 68.34, 2.68 62.06 C-0.16 55.78, -2.12 48.84, -2.48 40.75 C-2.84 32.67, -0.27 18.05, 0.5 13.57 C1.28 9.09, 1.12 13.15, 2.17 13.86" stroke="#c92a2a" stroke-width="4" fill="none"></path></g><g stroke-linecap="round" transform="translate(113.2845943622533 347.53547402000186) rotate(0 14.480994402885699 37.8697316883306)"><path d="M12 -1.12 C14.98 -2.98, 18.24 -0.74, 21.24 3.52 C24.23 7.78, 29.05 16.32, 29.97 24.46 C30.9 32.59, 28.47 44.44, 26.78 52.33 C25.09 60.22, 22.2 68.1, 19.85 71.8 C17.5 75.49, 15.27 76.35, 12.68 74.51 C10.08 72.66, 6.6 67.22, 4.3 60.73 C2.01 54.24, -0.64 43.79, -1.09 35.59 C-1.54 27.38, -1.27 17.16, 1.59 11.5 C4.46 5.84, 13.5 3.09, 16.11 1.63 C18.72 0.17, 17.24 2.44, 17.27 2.76 M18.89 0.54 C21.51 0.82, 20.64 4.88, 22.75 10.84 C24.86 16.81, 30.98 28.18, 31.54 36.33 C32.1 44.49, 28 53.66, 26.12 59.75 C24.24 65.85, 23.29 71.26, 20.26 72.89 C17.23 74.51, 10.9 73.17, 7.95 69.51 C5 65.85, 3.78 58.39, 2.56 50.95 C1.34 43.5, -0.51 32.75, 0.63 24.85 C1.78 16.95, 6.4 8.03, 9.42 3.53 C12.44 -0.96, 17.56 -2.22, 18.73 -2.15 C19.91 -2.08, 16.59 3.31, 16.45 3.95" stroke="#c92a2a" stroke-width="4" fill="none"></path></g><g stroke-linecap="round" transform="translate(111.7605557569741 347.16059555847096) rotate(0 14.480994402885699 37.8697316883306)"><path d="M3.03 10.72 C5.17 4.82, 11.48 1.04, 15.07 0.3 C18.66 -0.45, 22.51 1.64, 24.59 6.27 C26.68 10.9, 27.06 19.85, 27.6 28.07 C28.13 36.29, 28.87 48.34, 27.8 55.56 C26.74 62.78, 24.31 67.93, 21.21 71.39 C18.11 74.84, 12.01 78.38, 9.2 76.28 C6.38 74.17, 5.61 65.59, 4.32 58.77 C3.03 51.94, 0.24 44.76, 1.44 35.33 C2.63 25.9, 8.18 7.42, 11.47 2.18 C14.77 -3.06, 20.95 3.84, 21.21 3.88 M24.34 7.82 C26.89 12.53, 28.68 22.74, 28.75 30.99 C28.82 39.24, 25.93 49.9, 24.78 57.32 C23.62 64.74, 24.83 72.45, 21.84 75.5 C18.86 78.55, 10.15 78.57, 6.86 75.64 C3.57 72.72, 3.32 64.76, 2.12 57.97 C0.91 51.17, -1.18 43.14, -0.36 34.87 C0.46 26.61, 4.71 13.78, 7.05 8.38 C9.38 2.99, 11.32 2.36, 13.64 2.52 C15.97 2.68, 19.24 8.22, 21.01 9.34 C22.77 10.46, 23.81 8.99, 24.23 9.23" stroke="#c92a2a" stroke-width="4" fill="none"></path></g><g transform="translate(140.48167639236362 269.98818553914225) rotate(0 0.00004484527380554937 0.00004484527380554937)" stroke="none"><path fill="#000000" d="M 6.28,-6.28 Q 6.28,-6.28 7.11,-5.11 7.95,-3.94 8.37,-2.57 8.80,-1.19 8.76,0.23 8.72,1.67 8.22,3.02 7.73,4.37 6.83,5.49 5.93,6.61 4.72,7.38 3.50,8.15 2.11,8.50 0.72,8.85 -0.71,8.73 -2.14,8.61 -3.46,8.05 -4.78,7.48 -5.85,6.52 -6.92,5.56 -7.63,4.31 -8.33,3.06 -8.60,1.65 -8.87,0.23 -8.68,-1.18 -8.49,-2.60 -7.85,-3.89 -7.21,-5.18 -6.19,-6.19 -5.18,-7.21 -3.89,-7.85 -2.60,-8.49 -1.18,-8.68 0.24,-8.87 1.65,-8.60 3.06,-8.33 4.31,-7.62 5.56,-6.92 6.52,-5.85 7.48,-4.78 8.05,-3.46 8.62,-2.14 8.73,-0.70 8.85,0.72 8.50,2.11 8.15,3.51 7.38,4.72 6.61,5.93 5.48,6.83 4.36,7.73 3.02,8.22 1.67,8.72 0.23,8.76 -1.20,8.80 -2.57,8.37 -3.94,7.95 -5.11,7.11 -6.28,6.27 -6.28,6.27 -6.28,6.28 -6.94,5.43 -7.60,4.59 -8.04,3.61 -8.48,2.64 -8.67,1.58 -8.86,0.53 -8.80,-0.53 -8.73,-1.60 -8.41,-2.62 -8.09,-3.64 -7.54,-4.56 -6.99,-5.47 -6.23,-6.23 -5.47,-6.99 -4.56,-7.54 -3.64,-8.10 -2.62,-8.41 -1.60,-8.73 -0.53,-8.80 0.53,-8.86 1.59,-8.67 2.64,-8.48 3.61,-8.04 4.59,-7.60 5.43,-6.94 6.28,-6.28 6.28,-6.28 L 6.28,-6.28 Z"></path></g></svg>